<mxfile host="app.diagrams.net" modified="2021-05-08T05:55:35.964Z" agent="5.0 (Windows NT 10.0; Win64; x64) AppleWebKit/537.36 (KHTML, like Gecko) Chrome/90.0.4430.93 Safari/537.36" etag="_TqiLyvXAYjdl3JAlMJI" version="14.6.11" type="github">
  <diagram id="t9NivSEplZMBGuMarH3T" name="Page-1">
    <mxGraphModel dx="868" dy="450" grid="1" gridSize="10" guides="1" tooltips="1" connect="1" arrows="1" fold="1" page="1" pageScale="1" pageWidth="827" pageHeight="1169" math="0" shadow="0">
      <root>
        <mxCell id="0" />
        <mxCell id="1" parent="0" />
        <mxCell id="3GRDzOkhqdmkL83LRnqV-2" value="add movie" style="ellipse;whiteSpace=wrap;html=1;" parent="1" vertex="1">
          <mxGeometry x="300" y="90" width="120" height="50" as="geometry" />
        </mxCell>
        <mxCell id="3GRDzOkhqdmkL83LRnqV-3" value="update movie" style="ellipse;whiteSpace=wrap;html=1;" parent="1" vertex="1">
          <mxGeometry x="300" y="170" width="120" height="50" as="geometry" />
        </mxCell>
        <mxCell id="3GRDzOkhqdmkL83LRnqV-4" value="remove mvie" style="ellipse;whiteSpace=wrap;html=1;" parent="1" vertex="1">
          <mxGeometry x="300" y="250" width="120" height="50" as="geometry" />
        </mxCell>
        <mxCell id="3GRDzOkhqdmkL83LRnqV-5" value="view movie" style="ellipse;whiteSpace=wrap;html=1;" parent="1" vertex="1">
          <mxGeometry x="300" y="330" width="120" height="50" as="geometry" />
        </mxCell>
        <mxCell id="3GRDzOkhqdmkL83LRnqV-6" value="view movie list" style="ellipse;whiteSpace=wrap;html=1;" parent="1" vertex="1">
          <mxGeometry x="300" y="400" width="120" height="60" as="geometry" />
        </mxCell>
        <mxCell id="3GRDzOkhqdmkL83LRnqV-7" value="movie service" style="ellipse;whiteSpace=wrap;html=1;" parent="1" vertex="1">
          <mxGeometry x="30" y="220" width="120" height="60" as="geometry" />
        </mxCell>
        <mxCell id="3GRDzOkhqdmkL83LRnqV-9" value="" style="endArrow=none;html=1;" parent="1" target="3GRDzOkhqdmkL83LRnqV-7" edge="1">
          <mxGeometry width="50" height="50" relative="1" as="geometry">
            <mxPoint x="300" y="115" as="sourcePoint" />
            <mxPoint x="440" y="210" as="targetPoint" />
            <Array as="points">
              <mxPoint x="160" y="240" />
            </Array>
          </mxGeometry>
        </mxCell>
        <mxCell id="3GRDzOkhqdmkL83LRnqV-11" value="" style="endArrow=none;html=1;entryX=1;entryY=0.5;entryDx=0;entryDy=0;exitX=0;exitY=0.5;exitDx=0;exitDy=0;" parent="1" source="3GRDzOkhqdmkL83LRnqV-3" target="3GRDzOkhqdmkL83LRnqV-7" edge="1">
          <mxGeometry width="50" height="50" relative="1" as="geometry">
            <mxPoint x="390" y="260" as="sourcePoint" />
            <mxPoint x="440" y="210" as="targetPoint" />
          </mxGeometry>
        </mxCell>
        <mxCell id="3GRDzOkhqdmkL83LRnqV-12" value="" style="endArrow=none;html=1;entryX=1;entryY=0.5;entryDx=0;entryDy=0;exitX=0.025;exitY=0.28;exitDx=0;exitDy=0;exitPerimeter=0;" parent="1" source="3GRDzOkhqdmkL83LRnqV-4" target="3GRDzOkhqdmkL83LRnqV-7" edge="1">
          <mxGeometry width="50" height="50" relative="1" as="geometry">
            <mxPoint x="390" y="260" as="sourcePoint" />
            <mxPoint x="440" y="210" as="targetPoint" />
          </mxGeometry>
        </mxCell>
        <mxCell id="3GRDzOkhqdmkL83LRnqV-13" value="" style="endArrow=none;html=1;entryX=1;entryY=0.5;entryDx=0;entryDy=0;exitX=0;exitY=0.5;exitDx=0;exitDy=0;" parent="1" source="3GRDzOkhqdmkL83LRnqV-5" target="3GRDzOkhqdmkL83LRnqV-7" edge="1">
          <mxGeometry width="50" height="50" relative="1" as="geometry">
            <mxPoint x="390" y="260" as="sourcePoint" />
            <mxPoint x="440" y="210" as="targetPoint" />
          </mxGeometry>
        </mxCell>
        <mxCell id="3GRDzOkhqdmkL83LRnqV-14" value="" style="endArrow=none;html=1;exitX=0;exitY=0.333;exitDx=0;exitDy=0;exitPerimeter=0;" parent="1" source="3GRDzOkhqdmkL83LRnqV-6" edge="1">
          <mxGeometry width="50" height="50" relative="1" as="geometry">
            <mxPoint x="390" y="260" as="sourcePoint" />
            <mxPoint x="150" y="250" as="targetPoint" />
          </mxGeometry>
        </mxCell>
        <mxCell id="3GRDzOkhqdmkL83LRnqV-15" value="view movie list by threatre id" style="ellipse;whiteSpace=wrap;html=1;" parent="1" vertex="1">
          <mxGeometry x="300" y="480" width="120" height="50" as="geometry" />
        </mxCell>
        <mxCell id="3GRDzOkhqdmkL83LRnqV-16" value="" style="endArrow=none;html=1;entryX=1.033;entryY=0.617;entryDx=0;entryDy=0;entryPerimeter=0;exitX=0;exitY=0.5;exitDx=0;exitDy=0;" parent="1" source="3GRDzOkhqdmkL83LRnqV-15" target="3GRDzOkhqdmkL83LRnqV-7" edge="1">
          <mxGeometry width="50" height="50" relative="1" as="geometry">
            <mxPoint x="390" y="360" as="sourcePoint" />
            <mxPoint x="440" y="310" as="targetPoint" />
          </mxGeometry>
        </mxCell>
      </root>
    </mxGraphModel>
  </diagram>
</mxfile>
